<svg width="218" height="21" viewBox="0 0 218 21" fill="none" xmlns="http://www.w3.org/2000/svg">
<path d="M0.116702 2.23645H5.48499L5.8351 2.58878L6.41861 3.64577L7.23552 4.82019L8.40254 6.69928L9.56956 8.46092L10.5032 9.98767L10.97 10.6923L11.2034 10.8098L11.0867 10.1051V2.35389L11.2034 2.23645H16.5717V19.618H11.0867L9.33616 16.9168L8.16914 15.1551L5.9518 11.7493L5.60169 11.1621L5.48499 19.618H0.116702L0 19.1482V2.35389L0.116702 2.23645Z" fill="white"/>
<path d="M54.7324 2.23645H62.6682L64.5354 2.47134L65.9358 2.9411L67.4529 3.76321L68.7367 4.82019L69.787 6.2295L70.4872 7.75626L70.8373 9.28301V12.5714L70.3705 14.3331L69.5536 15.9773L68.2698 17.3866L67.3362 18.2087L65.3523 19.1482L63.4851 19.618H54.7324V2.23645ZM60.2174 7.0516V14.8028L62.7849 14.6854L64.1853 13.9807L65.0022 12.9237L65.3523 12.1016L65.469 11.397V10.4574L65.2356 9.40045L64.6521 8.34348L63.7185 7.52137L62.7849 7.16905L61.9679 7.0516H60.2174Z" fill="white"/>
<path d="M38.396 2.23645H47.1486L49.1326 2.58878L50.7664 3.41088L51.9334 4.46786L52.7503 6.11206L52.9837 7.0516V8.93069L52.5169 10.34L51.7 11.5144L50.7664 12.3365L49.8328 12.8063L49.2493 12.9237L50.2996 14.6854L51.9334 17.6214L52.9837 19.3831V19.618L50.4163 19.7354H47.0319L45.9816 17.8563L45.048 15.9773L43.881 13.7458V19.618H38.396L38.2793 2.35389L38.396 2.23645ZM43.881 6.81672L43.7643 7.28649V9.75278H46.5651L47.1486 9.40045L47.4988 8.6958V7.8737L47.0319 7.16905L46.6818 6.93416L45.5148 6.81672H43.881Z" fill="white"/>
<path d="M26.1423 2H28.8264L30.4602 2.35232L31.5106 2.8221L32.911 3.6442L34.078 4.70118L35.0116 5.8756L35.8285 7.5198L36.2953 9.28144L36.412 10.1035V11.8652L35.8285 14.3315L34.7782 16.2106L33.4945 17.6199L32.7943 18.2071L31.3939 19.0292L29.6433 19.6164L29.0598 19.7338H25.7922L24.1583 19.2641L22.4078 18.3245L21.2408 17.385L20.3072 16.328L19.607 15.1536L19.0234 13.7443L18.6733 12.4524L18.5566 11.6303V10.1035L19.0234 7.98958L19.607 6.58027L20.4239 5.28839L21.3575 4.23141L22.6412 3.29187L24.275 2.46977L26.1423 2ZM26.7258 7.05003L25.7922 7.40236L24.8585 8.22446L24.275 9.39888L24.1583 9.86866V11.9826L24.6251 13.1571L25.5588 14.214L26.6091 14.6838H28.4763L29.6433 14.0966L30.4602 13.0396L30.8103 12.1001V9.63378L30.3435 8.57679L29.5266 7.63724L29.0598 7.28492L28.1262 7.05003H26.7258Z" fill="white"/>
<path d="M105.966 2H108.767L110.401 2.35232L111.802 3.05699L112.852 3.87908L113.669 5.17095L114.252 6.81515L114.369 7.5198L113.669 7.63724H108.417L107.834 6.46282L107.133 6.34538L106.667 6.58027L106.55 7.28492L107.133 7.87214L108.417 8.45935L111.335 9.63378L112.502 10.3384L113.319 11.0431L114.252 12.4524L114.486 13.1571L114.602 15.0361L114.369 16.0931L113.669 17.385L112.735 18.442L111.335 19.2641L110.284 19.6164L109.584 19.7338H106.2L104.449 19.2641L102.932 18.442L101.999 17.6199L101.182 16.328L100.832 15.271L100.715 14.0966H106.433L107.017 15.1536L107.834 15.5059L108.534 15.1536L108.651 14.4489L108.067 13.8617L106.9 13.2745L103.749 12.1001L102.465 11.278L101.648 10.4559L100.948 9.28144L100.715 8.45935V6.22794L101.182 4.93607L102.115 3.6442L103.282 2.8221L104.683 2.23488L105.966 2Z" fill="white"/>
<path d="M82.1582 2.23645H88.3434L88.8102 3.176L90.3273 6.58184L90.9109 7.99114V8.22603L91.261 7.8737L92.5447 4.93764L93.595 2.47134L93.8284 2.23645H99.8969L99.6635 2.82366L97.5629 7.0516L96.3958 9.28301L94.6453 12.6889L93.8284 14.2156L93.7117 19.618H88.3434L88.2267 14.3331L86.5929 11.1621L85.4259 8.93069L84.0254 6.11206L82.8584 3.88065L82.1582 2.47134V2.23645Z" fill="white"/>
<path d="M72.9395 2.23645H78.3077L78.4244 2.35389L78.3077 15.5075H83.5593V19.618H72.9395V2.23645Z" fill="white"/>
<path d="M169.918 2.35229H176.687L177.97 2.58719L179.021 3.05696L180.071 3.76161L180.771 4.70115L181.355 6.11047L181.471 7.05V8.10699L181.121 9.51631L180.538 10.5733L179.838 11.3954L178.904 11.9826L177.387 12.4524H176.92L177.737 13.7442L181.005 18.6768L181.588 19.6164L179.137 19.7338L178.671 19.264L177.504 17.385L176.22 15.3884L174.586 12.8047L174.469 12.6873L172.135 12.5698V19.6164H169.918V2.35229ZM172.135 4.34883V10.9256H176.453L177.737 10.4558L178.671 9.63375L179.021 8.81164L179.137 8.22443V6.93256L178.787 5.87558L177.97 4.93604L177.037 4.46627L176.337 4.34883H172.135Z" fill="white"/>
<path d="M158.831 2.5863H161.165L161.865 3.99561L163.149 7.51889L165.249 13.1561L166.416 16.3271L167.583 19.2632V19.6155L165.366 19.7329L165.016 19.3806L163.732 15.8573V15.6224L156.263 15.7399L154.98 19.3806L154.863 19.6155H152.412L152.529 19.0283L153.929 15.3876L154.629 13.5085L155.913 9.98519L157.547 5.63981L158.481 3.17352L158.831 2.5863ZM159.764 5.52237L158.714 8.69332L157.664 11.5119L156.847 13.7434V13.9782L163.032 13.8608L162.682 12.5689L160.698 7.04912L160.114 5.52237H159.764Z" fill="white"/>
<path d="M148.795 2.23645L151.479 2.35389L150.779 3.176L149.845 4.11553L149.028 5.05508L147.394 6.81672L147.161 7.16905H146.927L146.694 7.63881L145.527 8.81324L144.71 9.75279L143.776 10.8098L144.243 11.5144L145.994 13.3935L147.394 15.0377L149.145 16.9168L150.195 18.2087L151.129 19.1482L151.362 19.2656V19.618H148.561L147.511 18.4435L146.694 17.504L144.593 15.1551L143.193 13.5109L142.376 12.6889L141.559 11.7493V19.618H139.342V2.35389H141.559V9.5179L141.442 10.2226L142.376 9.40045L143.193 8.46092L144.243 7.28649L145.527 5.87717L146.344 4.93764L147.394 3.76321L148.211 2.82366L148.795 2.23645Z" fill="white"/>
<path d="M115.769 2.23645L118.22 2.35389L118.803 3.76321L120.204 7.8737L121.254 10.8098L122.538 14.4505L123.238 16.5645V16.9168L123.471 16.7993L125.455 11.1621L128.606 2.35389H131.174L130.824 3.41088L129.19 7.8737L127.089 13.6284L125.339 18.4435L124.872 19.618H121.954L119.97 14.2156L119.27 12.3365L118.57 10.2226L117.52 7.63881L116.469 4.46786L115.652 2.35389L115.769 2.23645Z" fill="white"/>
<path d="M133.391 2.35229H135.725V19.6164H133.391V2.35229Z" fill="white"/>
<path d="M217.914 2.00824C217.919 2.0042 217.925 2.0053 217.928 2.01041C217.946 2.0477 217.949 2.09091 217.935 2.13018L217.581 3.13431L217.205 4.06237L216.659 5.19668L216.147 6.09038L215.805 6.60597L215.395 7.19031L215.019 7.67153L214.712 8.04963L214.302 8.49648L213.995 8.84021L213.414 9.39018L213.038 9.69953L212.492 10.1464L211.843 10.5932L211.467 10.8338L211.126 11.0401L210.203 11.5213L209.179 11.9338L208.257 12.2088L207.198 12.4494L206.071 12.6212L205.148 12.69H204.089L203.354 12.6307C203.275 12.6244 203.197 12.6097 203.122 12.587L203.025 12.5577C202.938 12.5314 202.856 12.4924 202.78 12.4418L202.733 12.41C202.704 12.3905 202.678 12.3663 202.658 12.3384L202.649 12.3274C202.61 12.275 202.601 12.2061 202.625 12.1454C202.645 12.0968 202.676 12.054 202.717 12.0212L202.73 12.0105C202.793 11.9599 202.866 11.9236 202.944 11.9039L203.099 11.865L204.67 11.6932L205.626 11.5213L206.173 11.3494L206.639 11.1444C206.692 11.1208 206.743 11.0913 206.791 11.0566L207.015 10.8925C207.068 10.8537 207.114 10.8058 207.15 10.7511L207.262 10.5815C207.287 10.5436 207.307 10.5027 207.322 10.4596L207.374 10.3013C207.393 10.2445 207.4 10.1844 207.394 10.1248L207.376 9.94916C207.371 9.89775 207.357 9.84768 207.334 9.80141L207.274 9.68125C207.246 9.62485 207.212 9.57156 207.173 9.52226L207.152 9.49659C207.114 9.44881 207.07 9.4067 207.02 9.37155L206.794 9.2126C206.767 9.19353 206.739 9.17692 206.708 9.16297L206.31 8.9777L205.695 8.77146L205.08 8.63397L203.85 8.46211L202.621 8.39336H201.63L200.264 8.46211L198.829 8.63397L197.907 8.80584L197.053 9.01207L195.824 9.39018L195.106 9.66516L194.15 10.0776L192.916 10.7221L192.511 11.0057C192.511 11.0057 192.22 11.2248 192.169 11.2592C192.118 11.2936 191.856 11.4951 191.657 11.6244C191.586 11.6704 191.494 11.7211 191.412 11.7641C191.282 11.8328 191.136 11.865 190.989 11.865C190.937 11.865 190.889 11.8378 190.862 11.7933L190.853 11.7767C190.82 11.7225 190.806 11.6592 190.813 11.5965L190.821 11.5267C190.832 11.4322 190.859 11.3402 190.901 11.255L190.929 11.1979C190.981 11.0932 191.047 10.9961 191.126 10.9093L191.178 10.851L191.349 10.662L191.93 10.0776L192.203 9.83702L192.75 9.39018L193.433 8.90895L194.321 8.39336L195.687 7.7059L196.541 7.36217L197.19 7.12156L198.283 6.77783L199.786 6.39973L201.186 6.12475L202.177 5.98726L203.338 5.88414L205.285 5.78102L206.822 5.74665H210.101L211.057 5.71227L212.253 5.57478L213.243 5.33417L214.166 5.02482L214.712 4.78421L215.395 4.4061L216.01 3.99363L216.488 3.61553L216.898 3.23742L217.24 2.8937L217.615 2.41247L217.762 2.19052C217.801 2.13239 217.845 2.07821 217.894 2.02875L217.914 2.00824Z" fill="url(#paint0_linear_2331_9366)"/>
<path d="M199.814 8.88081L200.694 8.83618L201.365 8.87389C201.404 8.87612 201.418 8.92745 201.385 8.94956L200.088 9.15579L198.79 9.43077L197.868 9.67138L196.877 9.98073L195.921 10.3588L195.067 10.7713L194.521 11.115L193.941 11.4588L193.565 11.7337L192.95 12.1118L192.721 12.2466C192.602 12.3164 192.47 12.3604 192.333 12.3757L192.286 12.3809C192.253 12.3846 192.219 12.373 192.196 12.3492C192.156 12.3096 192.145 12.2501 192.167 12.1987L192.176 12.1769C192.214 12.0882 192.264 12.0053 192.326 11.931L192.404 11.8368L192.643 11.5876L192.873 11.39L193.219 11.1365L193.565 10.8744L194.043 10.5651L194.555 10.2557L195.033 10.0151L196.057 9.63701L196.706 9.43077L197.936 9.12142L199.063 8.94956L199.814 8.88081Z" fill="url(#paint1_linear_2331_9366)"/>
<path d="M187.925 20.9921C187.921 20.9962 187.915 20.9951 187.912 20.99C187.893 20.9527 187.891 20.9095 187.905 20.8702L188.259 19.8661L188.634 18.938L189.181 17.8037L189.693 16.91L190.035 16.3944L190.445 15.8101L190.82 15.3288L191.128 14.9507L191.538 14.5039L191.845 14.1602L192.426 13.6102L192.801 13.3008L193.348 12.854L193.997 12.4071L194.373 12.1665L194.714 11.9603L195.636 11.4791L196.661 11.0666L197.583 10.7916L198.642 10.551L199.769 10.3791L200.692 10.3104H201.75L202.486 10.3696C202.565 10.3759 202.642 10.3906 202.718 10.4134L202.815 10.4427C202.902 10.4689 202.984 10.508 203.06 10.5585L203.107 10.5904C203.136 10.6098 203.161 10.634 203.182 10.662L203.19 10.6729C203.229 10.7253 203.239 10.7942 203.214 10.8549C203.195 10.9036 203.164 10.9463 203.123 10.9791L203.109 10.9899C203.047 11.0404 202.974 11.0768 202.895 11.0965L202.741 11.1353L201.17 11.3072L200.213 11.4791L199.667 11.6509L199.201 11.8559C199.147 11.8796 199.096 11.909 199.049 11.9438L198.825 12.1079C198.772 12.1467 198.726 12.1945 198.69 12.2493L198.577 12.4189C198.552 12.4567 198.532 12.4977 198.518 12.5408L198.466 12.6991C198.447 12.7559 198.44 12.816 198.446 12.8756L198.464 13.0512C198.469 13.1026 198.483 13.1527 198.506 13.199L198.566 13.3191C198.594 13.3755 198.628 13.4288 198.667 13.4781L198.687 13.5038C198.725 13.5516 198.77 13.5937 198.82 13.6288L199.046 13.7878C199.073 13.8068 199.101 13.8234 199.131 13.8374L199.53 14.0227L200.145 14.2289L200.76 14.3664L201.989 14.5383L203.219 14.607H204.21L205.576 14.5383L207.01 14.3664L207.933 14.1945L208.787 13.9883L210.016 13.6102L210.733 13.3352L211.69 12.9227L212.924 12.2782L213.329 11.9947C213.329 11.9947 213.62 11.7755 213.671 11.7412C213.722 11.7068 213.984 11.5053 214.183 11.376C214.254 11.33 214.346 11.2792 214.427 11.2362C214.558 11.1675 214.704 11.1353 214.851 11.1353C214.903 11.1353 214.951 11.1626 214.977 11.2071L214.987 11.2237C215.02 11.2779 215.033 11.3411 215.026 11.4039L215.019 11.4736C215.008 11.5682 214.981 11.6602 214.939 11.7454L214.911 11.8024C214.859 11.9072 214.792 12.0043 214.714 12.0911L214.661 12.1493L214.491 12.3384L213.91 12.9227L213.637 13.1633L213.09 13.6102L212.407 14.0914L211.519 14.607L210.153 15.2945L209.299 15.6382L208.65 15.8788L207.557 16.2225L206.054 16.6006L204.654 16.8756L203.663 17.0131L202.502 17.1162L200.555 17.2193L199.018 17.2537L195.739 17.2537L194.783 17.2881L193.587 17.4256L192.597 17.6662L191.674 17.9756L191.128 18.2162L190.445 18.5943L189.83 19.0067L189.352 19.3848L188.942 19.7629L188.6 20.1067L188.225 20.5879L188.078 20.8098C188.039 20.868 187.995 20.9222 187.946 20.9716L187.925 20.9921Z" fill="url(#paint2_linear_2331_9366)"/>
<path d="M205.79 14.0453L204.909 14.0541L204.24 13.9892C204.201 13.9853 204.189 13.9335 204.223 13.9127L205.528 13.7594L206.836 13.5374L207.767 13.3344L208.769 13.0656L209.74 12.7266L210.609 12.3492L211.169 12.0279L211.763 11.7081L212.15 11.4486L212.779 11.0958L213.014 10.9704C213.136 10.9056 213.269 10.867 213.407 10.8573L213.454 10.8539C213.487 10.8515 213.52 10.8646 213.543 10.8893C213.58 10.9304 213.589 10.9904 213.566 11.0408L213.555 11.0622C213.514 11.1493 213.46 11.2301 213.396 11.3018L213.314 11.3927L213.065 11.632L212.827 11.8201L212.471 12.0594L212.115 12.3072L211.625 12.5969L211.101 12.8852L210.613 13.1062L209.574 13.4423L208.917 13.622L207.676 13.8812L206.543 14.0071L205.79 14.0453Z" fill="url(#paint3_linear_2331_9366)"/>
<defs>
<linearGradient id="paint0_linear_2331_9366" x1="191.251" y1="11.4096" x2="217.99" y2="2.65909" gradientUnits="userSpaceOnUse">
<stop offset="0.129301" stop-color="#85EB18"/>
<stop offset="0.498117" stop-color="#00B061"/>
<stop offset="0.803557" stop-color="#E5A200"/>
</linearGradient>
<linearGradient id="paint1_linear_2331_9366" x1="192.285" y1="11.9615" x2="201.43" y2="8.85137" gradientUnits="userSpaceOnUse">
<stop offset="0.129301" stop-color="#85EB18"/>
<stop offset="0.498117" stop-color="#00B061"/>
<stop offset="0.803557" stop-color="#E5A200"/>
</linearGradient>
<linearGradient id="paint2_linear_2331_9366" x1="214.589" y1="11.5908" x2="187.85" y2="20.3413" gradientUnits="userSpaceOnUse">
<stop offset="0.129301" stop-color="#00CFEA"/>
<stop offset="0.498117" stop-color="#3A62D4"/>
<stop offset="0.803557" stop-color="#CC42C9"/>
</linearGradient>
<linearGradient id="paint3_linear_2331_9366" x1="213.438" y1="11.2676" x2="204.197" y2="14.0358" gradientUnits="userSpaceOnUse">
<stop offset="0.129301" stop-color="#00CFEA"/>
<stop offset="0.498117" stop-color="#3A62D4"/>
<stop offset="0.803557" stop-color="#CC42C9"/>
</linearGradient>
</defs>
</svg>
