<svg width="18" height="19" viewBox="0 0 18 19" fill="none" xmlns="http://www.w3.org/2000/svg">
<path d="M6.74997 2.75H2.99997C2.58576 2.75 2.24997 3.08579 2.24997 3.5V8.75C2.24997 9.16421 2.58576 9.5 2.99997 9.5H6.74997C7.16418 9.5 7.49997 9.16421 7.49997 8.75V3.5C7.49997 3.08579 7.16418 2.75 6.74997 2.75Z" stroke="currentColor" stroke-width="1.5" stroke-linecap="round" stroke-linejoin="round"/>
<path d="M15 2.75H11.25C10.8358 2.75 10.5 3.08579 10.5 3.5V5.75C10.5 6.16421 10.8358 6.5 11.25 6.5H15C15.4142 6.5 15.75 6.16421 15.75 5.75V3.5C15.75 3.08579 15.4142 2.75 15 2.75Z" stroke="currentColor" stroke-width="1.5" stroke-linecap="round" stroke-linejoin="round"/>
<path d="M15 9.5H11.25C10.8358 9.5 10.5 9.83579 10.5 10.25V15.5C10.5 15.9142 10.8358 16.25 11.25 16.25H15C15.4142 16.25 15.75 15.9142 15.75 15.5V10.25C15.75 9.83579 15.4142 9.5 15 9.5Z" stroke="currentColor" stroke-width="1.5" stroke-linecap="round" stroke-linejoin="round"/>
<path d="M6.74997 12.5H2.99997C2.58576 12.5 2.24997 12.8358 2.24997 13.25V15.5C2.24997 15.9142 2.58576 16.25 2.99997 16.25H6.74997C7.16418 16.25 7.49997 15.9142 7.49997 15.5V13.25C7.49997 12.8358 7.16418 12.5 6.74997 12.5Z" stroke="currentColor" stroke-width="1.5" stroke-linecap="round" stroke-linejoin="round"/>
</svg>
