<svg width="18" height="19" viewBox="0 0 18 19" fill="none" xmlns="http://www.w3.org/2000/svg">
<path d="M8.25 2V3.5M3.75 2V3.5M3.75 2.75H3C2.60218 2.75 2.22064 2.90804 1.93934 3.18934C1.65804 3.47064 1.5 3.85218 1.5 4.25V7.25C1.5 8.44347 1.97411 9.58807 2.81802 10.432C3.66193 11.2759 4.80653 11.75 6 11.75M6 11.75C7.19347 11.75 8.33807 11.2759 9.18198 10.432C10.0259 9.58807 10.5 8.44347 10.5 7.25V4.25C10.5 3.85218 10.342 3.47064 10.0607 3.18934C9.77936 2.90804 9.39783 2.75 9 2.75H8.25M6 11.75C6 12.9435 6.47411 14.0881 7.31802 14.932C8.16193 15.7759 9.30653 16.25 10.5 16.25C11.6935 16.25 12.8381 15.7759 13.682 14.932C14.5259 14.0881 15 12.9435 15 11.75V9.5M15 9.5C15.8284 9.5 16.5 8.82843 16.5 8C16.5 7.17157 15.8284 6.5 15 6.5C14.1716 6.5 13.5 7.17157 13.5 8C13.5 8.82843 14.1716 9.5 15 9.5Z" stroke="url(#paint0_linear_2288_1663)" stroke-width="1.5" stroke-linecap="round" stroke-linejoin="round"/>
<defs>
<linearGradient id="paint0_linear_2288_1663" x1="9" y1="2" x2="9" y2="16.25" gradientUnits="userSpaceOnUse">
<stop stop-color="#8C55E9"/>
<stop offset="1" stop-color="#4C73E6"/>
</linearGradient>
</defs>
</svg>
