<svg width="20" height="21" viewBox="0 0 24 24" fill="none" xmlns="http://www.w3.org/2000/svg">
<path d="M3.75568 5.19608C3.75568 7.38513 5.53633 9.16578 7.72538 9.16578C9.91443 9.16578 11.6951 7.38513 11.6951 5.19608C11.6951 3.00703 9.91443 1.22638 7.72538 1.22638C5.53633 1.22638 3.75568 3.00703 3.75568 5.19608ZM4.87689 5.19608C4.87689 3.62529 6.15458 2.3476 7.72538 2.3476C9.29618 2.3476 10.5739 3.62529 10.5739 5.19608C10.5739 6.76688 9.29618 8.04457 7.72538 8.04457C6.15458 8.04457 4.87689 6.76688 4.87689 5.19608Z" fill="none" stroke="currentColor" stroke-width="1.2"/>
<path d="M1.28699 17.5H8.10517C8.41468 17.5 8.66578 17.2489 8.66578 16.9394C8.66578 16.6299 8.41468 16.3788 8.10517 16.3788H1.8476V13.9091C1.8476 12.5474 2.95559 11.4394 4.31729 11.4394H11.1355C11.445 11.4394 11.6961 11.1883 11.6961 10.8788C11.6961 10.5693 11.445 10.3182 11.1355 10.3182H4.31729C2.33733 10.3182 0.726385 11.9291 0.726385 13.9091V16.9394C0.726385 17.2489 0.977485 17.5 1.28699 17.5Z" fill="none" stroke="currentColor" stroke-width="1.2"/>
<path d="M14.1667 19.7727H14.9242C15.6512 19.7727 16.2424 19.1815 16.2424 18.4545V16.7424H17.9545C18.6815 16.7424 19.2727 16.1512 19.2727 15.4242V14.6667C19.2727 13.9397 18.6815 13.3485 17.9545 13.3485H16.2424V11.6364C16.2424 10.9094 15.6512 10.3182 14.9242 10.3182H14.1667C13.4397 10.3182 12.8485 10.9094 12.8485 11.6364V13.3485H11.1364C10.4094 13.3485 9.81818 13.9397 9.81818 14.6667V15.4242C9.81818 16.1512 10.4094 16.7424 11.1364 16.7424H12.8485V18.4545C12.8485 19.1815 13.4397 19.7727 14.1667 19.7727ZM10.9394 14.6667C10.9394 14.558 11.0277 14.4697 11.1364 14.4697H13.4091C13.7186 14.4697 13.9697 14.2186 13.9697 13.9091V11.6364C13.9697 11.5277 14.058 11.4394 14.1667 11.4394H14.9242C15.0329 11.4394 15.1212 11.5277 15.1212 11.6364V13.9091C15.1212 14.2186 15.3723 14.4697 15.6818 14.4697H17.9545C18.0632 14.4697 18.1515 14.558 18.1515 14.6667V15.4242C18.1515 15.5329 18.0632 15.6212 17.9545 15.6212H15.6818C15.3723 15.6212 15.1212 15.8723 15.1212 16.1818V18.4545C15.1212 18.5632 15.0329 18.6515 14.9242 18.6515H14.1667C14.058 18.6515 13.9697 18.5632 13.9697 18.4545V16.1818C13.9697 15.8723 13.7186 15.6212 13.4091 15.6212H11.1364C11.0277 15.6212 10.9394 15.5329 10.9394 15.4242V14.6667Z" fill="none" stroke="currentColor" stroke-width="1.2"/>
</svg>
